<?xml version="1.0" encoding="UTF-8"?>
<!-- Generated by jsxcad -->
<!DOCTYPE svg PUBLIC "-//W3C//DTD SVG 1.1 Tiny//EN" "http://www.w3.org/Graphics/SVG/1.1/DTD/svg11-tiny.dtd">
<svg baseProfile="tiny" height="120.00000mm" width="120.00000mm" viewBox="-0.00000 -0.00000 120.00000 120.00000" version="1.1" stroke="black" stroke-width=".1" fill="none" xmlns="http://www.w3.org/2000/svg">
<path fill="#000000" stroke="#000000" d="M12.41370 22.56986 L12.64580 23.58863 L9.95436 27.35805 L7.47802 31.51308 L6.30134 33.91938 L5.39669 34.53702 L4.47148 35.69723 L3.92587 37.08518 L3.81370 38.56986 L3.98541 39.32355 L3.47973 40.62162 L2.08846 45.29231 L1.07414 50.11034 L0.45711 55.02946 L0.29167 59.00000 L0.00000 59.00000 L0.00000 0.00000 L120.00000 0.00000 L120.00000 120.00000 L60.00000 120.00000 L60.00000 119.75000 L64.97054 119.54289 L69.88966 118.92586 L74.70769 117.91154 L79.37838 116.52027 L83.96192 114.73472 L88.48692 112.52198 L92.64195 110.04564 L96.73712 107.12162 L100.47083 103.95650 L103.95650 100.47083 L107.12162 96.73712 L110.04564 92.64195 L112.52198 88.48692 L114.73472 83.96192 L116.52027 79.37838 L117.91154 74.70769 L118.92586 69.88966 L119.54289 64.97054 L119.75000 60.00000 L119.54289 55.02946 L118.92586 50.11034 L117.91154 45.29231 L116.52027 40.62162 L114.73472 36.03808 L112.52198 31.51308 L110.04564 27.35805 L107.12162 23.26288 L106.89040 22.99013 L106.97581 22.97724 L108.32136 22.32794 L109.40869 21.31804 L110.15444 20.02652 L110.48630 18.56986 L110.37413 17.08518 L109.82852 15.69723 L108.90331 14.53702 L107.67223 13.69651 L106.24580 13.25594 L104.75420 13.25594 L103.32777 13.69651 L102.09669 14.53702 L101.17148 15.69723 L100.87606 16.44872 L100.47083 16.04350 L99.95126 15.60305 L100.52136 15.32794 L101.60869 14.31804 L102.35444 13.02652 L102.68630 11.56986 L102.57413 10.08518 L102.02852 8.69723 L101.10331 7.53702 L99.87223 6.69651 L98.44580 6.25594 L96.95420 6.25594 L95.52777 6.69651 L94.29669 7.53702 L93.37148 8.69723 L92.82587 10.08518 L92.82583 10.08566 L92.64195 9.95436 L88.48692 7.47802 L83.96192 5.26528 L79.37838 3.47973 L74.70769 2.08846 L69.88966 1.07414 L64.97054 0.45711 L60.00000 0.25000 L55.02946 0.45711 L50.11034 1.07414 L45.29231 2.08846 L40.62162 3.47973 L36.03808 5.26528 L31.51308 7.47802 L27.35805 9.95436 L23.26288 12.87838 L19.52917 16.04350 L18.27639 17.29627 L18.14580 17.25594 L16.65420 17.25594 L15.22777 17.69651 L13.99669 18.53702 L13.07148 19.69723 L12.52587 21.08518 z M110.38630 110.66986 L110.27413 109.18518 L109.72852 107.79723 L108.80331 106.63702 L107.57223 105.79651 L106.14580 105.35594 L104.65420 105.35594 L103.22777 105.79651 L101.99669 106.63702 L101.07148 107.79723 L100.52587 109.18518 L100.41370 110.66986 L100.74556 112.12652 L101.49131 113.41804 L102.57864 114.42794 L103.92419 115.07724 L105.40000 115.30000 L106.87581 115.07724 L108.22136 114.42794 L109.30869 113.41804 L110.05444 112.12652 z M117.48630 103.66986 L117.37413 102.18518 L116.82852 100.79723 L115.90331 99.63702 L114.67223 98.79651 L113.24580 98.35594 L111.75420 98.35594 L110.32777 98.79651 L109.09669 99.63702 L108.17148 100.79723 L107.62587 102.18518 L107.51370 103.66986 L107.84556 105.12652 L108.59131 106.41804 L109.67864 107.42794 L111.02419 108.07724 L112.50000 108.30000 L113.97581 108.07724 L115.32136 107.42794 L116.40869 106.41804 L117.15444 105.12652 z M114.69336 113.00167 L114.69336 112.50000 L114.69336 111.99833 L114.47613 111.54761 L114.25891 111.09688 L113.86821 110.78516 L113.47750 110.47343 L112.98875 110.36171 L112.50000 110.25000 L112.01125 110.36171 L111.52250 110.47343 L111.13179 110.78516 L110.74109 111.09688 L110.52387 111.54761 L110.30664 111.99833 L110.30664 112.50000 L110.30664 113.00167 L110.52387 113.45239 L110.74109 113.90312 L111.13179 114.21484 L111.52250 114.52657 L112.01125 114.63829 L112.50000 114.75000 L112.98875 114.63829 L113.47750 114.52657 L113.86821 114.21484 L114.25891 113.90312 L114.47613 113.45239 z M114.75000 7.50000 L114.63829 7.01125 L114.52657 6.52250 L114.21484 6.13179 L113.90312 5.74109 L113.45239 5.52387 L113.00167 5.30664 L112.50000 5.30664 L111.99833 5.30664 L111.54761 5.52387 L111.09688 5.74109 L110.78516 6.13179 L110.47343 6.52250 L110.36171 7.01125 L110.25000 7.50000 L110.36171 7.98875 L110.47343 8.47750 L110.78516 8.86821 L111.09688 9.25891 L111.54761 9.47613 L111.99833 9.69336 L112.50000 9.69336 L113.00167 9.69336 L113.45239 9.47613 L113.90312 9.25891 L114.21484 8.86821 L114.52657 8.47750 L114.63829 7.98875 z M9.69336 8.00167 L9.69336 7.50000 L9.69336 6.99833 L9.47613 6.54761 L9.25891 6.09688 L8.86821 5.78516 L8.47750 5.47343 L7.98875 5.36171 L7.50000 5.25000 L7.01125 5.36171 L6.52250 5.47343 L6.13179 5.78516 L5.74109 6.09688 L5.52387 6.54761 L5.30664 6.99833 L5.30664 7.50000 L5.30664 8.00167 L5.52387 8.45239 L5.74109 8.90312 L6.13179 9.21484 L6.52250 9.52657 L7.01125 9.63829 L7.50000 9.75000 L7.98875 9.63829 L8.47750 9.52657 L8.86821 9.21484 L9.25891 8.90312 L9.47613 8.45239 z"/>
<path fill="#000000" stroke="#000000" d="M0.45711 55.02946 L1.07414 50.11034 L2.08846 45.29231 L3.47973 40.62162 L3.98541 39.32355 L4.14556 40.02652 L4.89131 41.31804 L5.97864 42.32794 L7.32419 42.97724 L8.80000 43.20000 L10.27581 42.97724 L11.62136 42.32794 L12.70869 41.31804 L13.45444 40.02652 L13.78630 38.56986 L13.67413 37.08518 L13.12852 35.69723 L12.20331 34.53702 L10.97223 33.69651 L9.54580 33.25594 L8.05420 33.25594 L6.62777 33.69651 L6.30134 33.91938 L7.47802 31.51308 L9.95436 27.35805 L12.64580 23.58863 L12.74556 24.02652 L13.49131 25.31804 L14.57864 26.32794 L15.92419 26.97724 L17.40000 27.20000 L18.87581 26.97724 L20.22136 26.32794 L21.30869 25.31804 L22.05444 24.02652 L22.38630 22.56986 L22.27413 21.08518 L21.72852 19.69723 L20.80331 18.53702 L19.57223 17.69651 L18.27639 17.29627 L19.52917 16.04350 L23.26288 12.87838 L27.35805 9.95436 L31.51308 7.47802 L36.03808 5.26528 L40.62162 3.47973 L45.29231 2.08846 L50.11034 1.07414 L55.02946 0.45711 L60.00000 0.25000 L64.97054 0.45711 L69.88966 1.07414 L74.70769 2.08846 L79.37838 3.47973 L83.96192 5.26528 L88.48692 7.47802 L92.64195 9.95436 L92.82583 10.08566 L92.71370 11.56986 L93.04556 13.02652 L93.79131 14.31804 L94.87864 15.32794 L96.22419 15.97724 L97.70000 16.20000 L99.17581 15.97724 L99.95126 15.60305 L100.47083 16.04350 L100.87606 16.44872 L100.62587 17.08518 L100.51370 18.56986 L100.84556 20.02652 L101.59131 21.31804 L102.67864 22.32794 L104.02419 22.97724 L105.50000 23.20000 L106.89040 22.99013 L107.12162 23.26288 L110.04564 27.35805 L112.52198 31.51308 L114.73472 36.03808 L116.52027 40.62162 L117.91154 45.29231 L118.92586 50.11034 L119.54289 55.02946 L119.75000 60.00000 L119.54289 64.97054 L118.92586 69.88966 L117.91154 74.70769 L116.52027 79.37838 L114.73472 83.96192 L112.52198 88.48692 L110.04564 92.64195 L107.12162 96.73712 L103.95650 100.47083 L100.47083 103.95650 L96.73712 107.12162 L92.64195 110.04564 L88.48692 112.52198 L83.96192 114.73472 L79.37838 116.52027 L74.70769 117.91154 L69.88966 118.92586 L64.97054 119.54289 L60.00000 119.75000 L60.00000 59.00000 L0.29167 59.00000 z"/>
<path fill="#000000" stroke="#000000" d="M0.00000 59.00000 L60.00000 59.00000 L60.00000 120.00000 L0.00000 120.00000 z"/>
<path fill="#000000" stroke="#000000" d="M100.52587 109.18518 L101.07148 107.79723 L101.99669 106.63702 L103.22777 105.79651 L104.65420 105.35594 L106.14580 105.35594 L107.57223 105.79651 L108.80331 106.63702 L109.72852 107.79723 L110.27413 109.18518 L110.38630 110.66986 L110.05444 112.12652 L109.30869 113.41804 L108.22136 114.42794 L106.87581 115.07724 L105.40000 115.30000 L103.92419 115.07724 L102.57864 114.42794 L101.49131 113.41804 L100.74556 112.12652 L100.41370 110.66986 z M107.38536 110.54154 L107.37156 110.42817 L107.26946 109.58928 L107.20481 109.49569 L106.72640 108.80312 L106.62538 108.75012 L105.87783 108.35792 L105.76406 108.35792 L104.92217 108.35792 L104.82115 108.41092 L104.07360 108.80312 L104.00895 108.89671 L103.53054 109.58928 L103.51674 109.70265 L103.41464 110.54154 L103.45492 110.64786 L103.75299 111.43462 L103.83865 111.51049 L104.47248 112.07192 L104.58290 112.09907 L105.40000 112.30000 L105.51042 112.27285 L106.32752 112.07192 L106.41317 111.99605 L107.04701 111.43462 L107.08729 111.32830 z"/>
<path fill="#000000" stroke="#000000" d="M103.41464 110.54154 L103.51674 109.70265 L103.53054 109.58928 L104.00895 108.89671 L104.07360 108.80312 L104.82115 108.41092 L104.92217 108.35792 L105.76406 108.35792 L105.87783 108.35792 L106.62538 108.75012 L106.72640 108.80312 L107.20481 109.49569 L107.26946 109.58928 L107.37156 110.42817 L107.38536 110.54154 L107.08729 111.32830 L107.04701 111.43462 L106.41317 111.99605 L106.32752 112.07192 L105.51042 112.27285 L105.40000 112.30000 L104.58290 112.09907 L104.47248 112.07192 L103.83865 111.51049 L103.75299 111.43462 L103.45492 110.64786 z"/>
<path fill="#000000" stroke="#000000" d="M117.15444 105.12652 L116.40869 106.41804 L115.32136 107.42794 L113.97581 108.07724 L112.50000 108.30000 L111.02419 108.07724 L109.67864 107.42794 L108.59131 106.41804 L107.84556 105.12652 L107.51370 103.66986 L107.62587 102.18518 L108.17148 100.79723 L109.09669 99.63702 L110.32777 98.79651 L111.75420 98.35594 L113.24580 98.35594 L114.67223 98.79651 L115.90331 99.63702 L116.82852 100.79723 L117.37413 102.18518 L117.48630 103.66986 z M114.48536 103.54154 L114.47156 103.42817 L114.36946 102.58928 L114.30481 102.49569 L113.82640 101.80312 L113.72538 101.75012 L112.97783 101.35792 L112.86406 101.35792 L112.02217 101.35792 L111.92115 101.41092 L111.17360 101.80312 L111.10895 101.89671 L110.63054 102.58928 L110.61674 102.70265 L110.51464 103.54154 L110.55492 103.64786 L110.85299 104.43462 L110.93865 104.51049 L111.57248 105.07192 L111.68290 105.09907 L112.50000 105.30000 L112.61042 105.27285 L113.42752 105.07192 L113.51317 104.99605 L114.14701 104.43462 L114.18729 104.32830 z"/>
<path fill="#000000" stroke="#000000" d="M110.51464 103.54154 L110.61674 102.70265 L110.63054 102.58928 L111.10895 101.89671 L111.17360 101.80312 L111.92115 101.41092 L112.02217 101.35792 L112.86406 101.35792 L112.97783 101.35792 L113.72538 101.75012 L113.82640 101.80312 L114.30481 102.49569 L114.36946 102.58928 L114.47156 103.42817 L114.48536 103.54154 L114.18729 104.32830 L114.14701 104.43462 L113.51317 104.99605 L113.42752 105.07192 L112.61042 105.27285 L112.50000 105.30000 L111.68290 105.09907 L111.57248 105.07192 L110.93865 104.51049 L110.85299 104.43462 L110.55492 103.64786 z"/>
<path fill="#000000" stroke="#000000" d="M92.82587 10.08518 L93.37148 8.69723 L94.29669 7.53702 L95.52777 6.69651 L96.95420 6.25594 L98.44580 6.25594 L99.87223 6.69651 L101.10331 7.53702 L102.02852 8.69723 L102.57413 10.08518 L102.68630 11.56986 L102.35444 13.02652 L101.60869 14.31804 L100.52136 15.32794 L99.17581 15.97724 L97.70000 16.20000 L96.22419 15.97724 L94.87864 15.32794 L93.79131 14.31804 L93.04556 13.02652 L92.71370 11.56986 z M99.68536 11.44154 L99.67156 11.32817 L99.56946 10.48928 L99.50481 10.39569 L99.02640 9.70312 L98.92538 9.65012 L98.17783 9.25792 L98.06406 9.25792 L97.22217 9.25792 L97.12115 9.31092 L96.37360 9.70312 L96.30895 9.79671 L95.83054 10.48928 L95.81674 10.60265 L95.71464 11.44154 L95.75492 11.54786 L96.05299 12.33462 L96.13865 12.41049 L96.77248 12.97192 L96.88290 12.99907 L97.70000 13.20000 L97.81042 13.17285 L98.62752 12.97192 L98.71317 12.89605 L99.34701 12.33462 L99.38729 12.22830 z"/>
<path fill="#000000" stroke="#000000" d="M95.71464 11.44154 L95.81674 10.60265 L95.83054 10.48928 L96.30895 9.79671 L96.37360 9.70312 L97.12115 9.31092 L97.22217 9.25792 L98.06406 9.25792 L98.17783 9.25792 L98.92538 9.65012 L99.02640 9.70312 L99.50481 10.39569 L99.56946 10.48928 L99.67156 11.32817 L99.68536 11.44154 L99.38729 12.22830 L99.34701 12.33462 L98.71317 12.89605 L98.62752 12.97192 L97.81042 13.17285 L97.70000 13.20000 L96.88290 12.99907 L96.77248 12.97192 L96.13865 12.41049 L96.05299 12.33462 L95.75492 11.54786 z"/>
<path fill="#000000" stroke="#000000" d="M110.15444 20.02652 L109.40869 21.31804 L108.32136 22.32794 L106.97581 22.97724 L105.50000 23.20000 L104.02419 22.97724 L102.67864 22.32794 L101.59131 21.31804 L100.84556 20.02652 L100.51370 18.56986 L100.62587 17.08518 L101.17148 15.69723 L102.09669 14.53702 L103.32777 13.69651 L104.75420 13.25594 L106.24580 13.25594 L107.67223 13.69651 L108.90331 14.53702 L109.82852 15.69723 L110.37413 17.08518 L110.48630 18.56986 z M107.48536 18.44154 L107.47156 18.32817 L107.36946 17.48928 L107.30481 17.39569 L106.82640 16.70312 L106.72538 16.65012 L105.97783 16.25792 L105.86406 16.25792 L105.02217 16.25792 L104.92115 16.31092 L104.17360 16.70312 L104.10895 16.79671 L103.63054 17.48928 L103.61674 17.60265 L103.51464 18.44154 L103.55492 18.54786 L103.85299 19.33462 L103.93865 19.41049 L104.57248 19.97192 L104.68290 19.99907 L105.50000 20.20000 L105.61042 20.17285 L106.42752 19.97192 L106.51317 19.89605 L107.14701 19.33462 L107.18729 19.22830 z"/>
<path fill="#000000" stroke="#000000" d="M103.51464 18.44154 L103.61674 17.60265 L103.63054 17.48928 L104.10895 16.79671 L104.17360 16.70312 L104.92115 16.31092 L105.02217 16.25792 L105.86406 16.25792 L105.97783 16.25792 L106.72538 16.65012 L106.82640 16.70312 L107.30481 17.39569 L107.36946 17.48928 L107.47156 18.32817 L107.48536 18.44154 L107.18729 19.22830 L107.14701 19.33462 L106.51317 19.89605 L106.42752 19.97192 L105.61042 20.17285 L105.50000 20.20000 L104.68290 19.99907 L104.57248 19.97192 L103.93865 19.41049 L103.85299 19.33462 L103.55492 18.54786 z"/>
<path fill="#000000" stroke="#000000" d="M22.05444 24.02652 L21.30869 25.31804 L20.22136 26.32794 L18.87581 26.97724 L17.40000 27.20000 L15.92419 26.97724 L14.57864 26.32794 L13.49131 25.31804 L12.74556 24.02652 L12.41370 22.56986 L12.52587 21.08518 L13.07148 19.69723 L13.99669 18.53702 L15.22777 17.69651 L16.65420 17.25594 L18.14580 17.25594 L19.57223 17.69651 L20.80331 18.53702 L21.72852 19.69723 L22.27413 21.08518 L22.38630 22.56986 z M19.38536 22.44154 L19.37156 22.32817 L19.26946 21.48928 L19.20481 21.39569 L18.72640 20.70312 L18.62538 20.65012 L17.87783 20.25792 L17.76406 20.25792 L16.92217 20.25792 L16.82115 20.31092 L16.07360 20.70312 L16.00895 20.79671 L15.53054 21.48928 L15.51674 21.60265 L15.41464 22.44154 L15.45492 22.54786 L15.75299 23.33462 L15.83865 23.41049 L16.47248 23.97192 L16.58290 23.99907 L17.40000 24.20000 L17.51042 24.17285 L18.32752 23.97192 L18.41317 23.89605 L19.04701 23.33462 L19.08729 23.22830 z"/>
<path fill="#000000" stroke="#000000" d="M15.41464 22.44154 L15.51674 21.60265 L15.53054 21.48928 L16.00895 20.79671 L16.07360 20.70312 L16.82115 20.31092 L16.92217 20.25792 L17.76406 20.25792 L17.87783 20.25792 L18.62538 20.65012 L18.72640 20.70312 L19.20481 21.39569 L19.26946 21.48928 L19.37156 22.32817 L19.38536 22.44154 L19.08729 23.22830 L19.04701 23.33462 L18.41317 23.89605 L18.32752 23.97192 L17.51042 24.17285 L17.40000 24.20000 L16.58290 23.99907 L16.47248 23.97192 L15.83865 23.41049 L15.75299 23.33462 L15.45492 22.54786 z"/>
<path fill="#000000" stroke="#000000" d="M13.45444 40.02652 L12.70869 41.31804 L11.62136 42.32794 L10.27581 42.97724 L8.80000 43.20000 L7.32419 42.97724 L5.97864 42.32794 L4.89131 41.31804 L4.14556 40.02652 L3.81370 38.56986 L3.92587 37.08518 L4.47148 35.69723 L5.39669 34.53702 L6.62777 33.69651 L8.05420 33.25594 L9.54580 33.25594 L10.97223 33.69651 L12.20331 34.53702 L13.12852 35.69723 L13.67413 37.08518 L13.78630 38.56986 z M10.78536 38.44154 L10.77156 38.32817 L10.66946 37.48928 L10.60481 37.39569 L10.12640 36.70312 L10.02538 36.65012 L9.27783 36.25792 L9.16406 36.25792 L8.32217 36.25792 L8.22115 36.31092 L7.47360 36.70312 L7.40895 36.79671 L6.93054 37.48928 L6.91674 37.60265 L6.81464 38.44154 L6.85492 38.54786 L7.15299 39.33462 L7.23865 39.41049 L7.87248 39.97192 L7.98290 39.99907 L8.80000 40.20000 L8.91042 40.17285 L9.72752 39.97192 L9.81317 39.89605 L10.44701 39.33462 L10.48729 39.22830 z"/>
<path fill="#000000" stroke="#000000" d="M6.81464 38.44154 L6.91674 37.60265 L6.93054 37.48928 L7.40895 36.79671 L7.47360 36.70312 L8.22115 36.31092 L8.32217 36.25792 L9.16406 36.25792 L9.27783 36.25792 L10.02538 36.65012 L10.12640 36.70312 L10.60481 37.39569 L10.66946 37.48928 L10.77156 38.32817 L10.78536 38.44154 L10.48729 39.22830 L10.44701 39.33462 L9.81317 39.89605 L9.72752 39.97192 L8.91042 40.17285 L8.80000 40.20000 L7.98290 39.99907 L7.87248 39.97192 L7.23865 39.41049 L7.15299 39.33462 L6.85492 38.54786 z"/>
<path fill="#000000" stroke="#000000" d="M110.30664 111.99833 L110.52387 111.54761 L110.74109 111.09688 L111.13179 110.78516 L111.52250 110.47343 L112.01125 110.36171 L112.50000 110.25000 L112.98875 110.36171 L113.47750 110.47343 L113.86821 110.78516 L114.25891 111.09688 L114.47613 111.54761 L114.69336 111.99833 L114.69336 112.50000 L114.69336 113.00167 L114.47613 113.45239 L114.25891 113.90312 L113.86821 114.21484 L113.47750 114.52657 L112.98875 114.63829 L112.50000 114.75000 L112.01125 114.63829 L111.52250 114.52657 L111.13179 114.21484 L110.74109 113.90312 L110.52387 113.45239 L110.30664 113.00167 L110.30664 112.50000 z"/>
<path fill="#000000" stroke="#000000" d="M114.63829 7.98875 L114.52657 8.47750 L114.21484 8.86821 L113.90312 9.25891 L113.45239 9.47613 L113.00167 9.69336 L112.50000 9.69336 L111.99833 9.69336 L111.54761 9.47613 L111.09688 9.25891 L110.78516 8.86821 L110.47343 8.47750 L110.36171 7.98875 L110.25000 7.50000 L110.36171 7.01125 L110.47343 6.52250 L110.78516 6.13179 L111.09688 5.74109 L111.54761 5.52387 L111.99833 5.30664 L112.50000 5.30664 L113.00167 5.30664 L113.45239 5.52387 L113.90312 5.74109 L114.21484 6.13179 L114.52657 6.52250 L114.63829 7.01125 L114.75000 7.50000 z"/>
<path fill="#000000" stroke="#000000" d="M5.30664 6.99833 L5.52387 6.54761 L5.74109 6.09688 L6.13179 5.78516 L6.52250 5.47343 L7.01125 5.36171 L7.50000 5.25000 L7.98875 5.36171 L8.47750 5.47343 L8.86821 5.78516 L9.25891 6.09688 L9.47613 6.54761 L9.69336 6.99833 L9.69336 7.50000 L9.69336 8.00167 L9.47613 8.45239 L9.25891 8.90312 L8.86821 9.21484 L8.47750 9.52657 L7.98875 9.63829 L7.50000 9.75000 L7.01125 9.63829 L6.52250 9.52657 L6.13179 9.21484 L5.74109 8.90312 L5.52387 8.45239 L5.30664 8.00167 L5.30664 7.50000 z"/>
</svg>