<?xml version="1.0" encoding="UTF-8"?>
<!-- Generated by jsxcad -->
<!DOCTYPE svg PUBLIC "-//W3C//DTD SVG 1.1 Tiny//EN" "http://www.w3.org/Graphics/SVG/1.1/DTD/svg11-tiny.dtd">
<svg baseProfile="tiny" height="167.50000mm" width="75.00000mm" viewBox="-0.00000 107.50000 75.00000 167.50000" version="1.1" stroke="black" stroke-width=".1" fill="none" xmlns="http://www.w3.org/2000/svg">
<path fill="#000000" stroke="#000000" d="M7.50000 107.50000 L67.50000 107.50000 L67.50000 167.50000 L7.50000 167.50000 z"/>
<path fill="#000000" stroke="#000000" d="M74.98619 272.23757 L74.87838 273.27027 L74.35567 274.17526 L73.51494 274.78471 L72.50000 275.00000 L2.76243 274.98619 L1.72973 274.87838 L0.82474 274.35567 L0.21529 273.51494 L0.00000 272.50000 L0.01381 202.76243 L0.12162 201.72973 L0.64433 200.82474 L1.48506 200.21529 L2.50000 200.00000 L72.23757 200.01381 L73.27027 200.12162 L74.17526 200.64433 L74.78471 201.48506 L75.00000 202.50000 z M69.00000 238.37727 L68.98360 237.71902 L68.96065 236.79816 L68.90977 236.11842 L68.84289 235.22495 L68.75353 234.51320 L68.64319 233.63418 L68.51231 232.89699 L68.36051 232.04185 L68.18982 231.30055 L68.00371 230.49222 L67.79774 229.76398 L67.58618 229.01586 L67.32379 228.23805 L67.06989 227.48532 L66.76176 226.70520 L66.48101 225.99434 L66.13731 225.23681 L65.84180 224.58544 L65.42818 223.78354 L65.09265 223.13298 L64.65434 222.37871 L64.31833 221.80044 L63.80936 221.01723 L63.44034 220.44932 L62.88045 219.67691 L62.49643 219.14705 L61.91327 218.42148 L61.53379 217.94927 L60.88511 217.21910 L60.48410 216.76767 L59.78542 216.05644 L59.37472 215.63831 L58.62957 214.95222 L58.21233 214.56801 L57.40527 213.89706 L56.97424 213.53869 L56.13242 212.90823 L55.70263 212.58632 L54.80672 211.98378 L54.36852 211.68904 L53.44098 211.13144 L53.00518 210.86943 L52.05763 210.36257 L51.62852 210.13301 L50.63509 209.66378 L50.20027 209.45838 L49.16399 209.03148 L48.72438 208.85036 L47.64897 208.47024 L47.20541 208.31344 L46.12833 207.99315 L45.69469 207.86418 L44.60381 207.59832 L44.17339 207.49342 L43.04624 207.27809 L42.60881 207.19451 L41.48529 207.03799 L41.05465 206.97799 L39.90413 206.87641 L39.46683 206.83780 L38.34884 206.79517 L37.92566 206.77903 L36.73836 206.79388 L36.28891 206.79950 L35.14168 206.87285 L34.70552 206.90073 L33.59965 207.02693 L33.17574 207.07531 L32.04709 207.26142 L31.60903 207.33366 L30.48922 207.57719 L30.04732 207.67330 L28.94701 207.97195 L28.50382 208.09225 L27.44508 208.43785 L27.00833 208.58043 L25.99687 208.96701 L25.56831 209.13082 L24.52487 209.59136 L24.06873 209.79270 L23.10993 210.27552 L22.67647 210.49381 L21.74801 211.02071 L21.31287 211.26768 L20.39773 211.85002 L19.95156 212.13397 L19.11921 212.72413 L18.69650 213.02388 L17.86393 213.67933 L17.42210 214.02721 L16.64847 214.70301 L16.21850 215.07865 L15.49671 215.77651 L15.07597 216.18335 L14.39885 216.90769 L13.98416 217.35134 L13.37238 218.07514 L12.97846 218.54124 L12.39314 219.30897 L11.99603 219.82989 L11.48303 220.57795 L11.11611 221.11304 L10.64450 221.87961 L10.28863 222.45813 L9.86063 223.23927 L9.51931 223.86229 L9.15231 224.61929 L8.84296 225.25742 L8.50621 226.05137 L8.20569 226.75999 L7.92404 227.53126 L7.65759 228.26099 L7.42523 229.01206 L7.19228 229.76510 L7.00362 230.50275 L6.80316 231.28658 L6.65438 232.01854 L6.48670 232.84354 L6.37675 233.57124 L6.24514 234.44239 L6.17665 235.12620 L6.08958 235.99560 L6.05597 236.66000 L6.01062 237.55658 L6.01062 239.19797 L6.04188 239.81577 L6.08958 240.75895 L6.14891 241.35130 L6.24514 242.31218 L6.33377 242.89881 L6.48670 243.91107 L6.59823 244.45978 L6.80316 245.46806 L6.93483 245.98287 L7.19228 246.98958 L7.34334 247.47786 L7.65759 248.49375 L7.82809 248.96066 L8.20569 249.99482 L8.39533 250.44195 L8.84296 251.49746 L9.03536 251.89431 L9.51931 252.89266 L9.72857 253.27460 L10.28863 254.29690 L10.50354 254.64623 L11.11611 255.64207 L11.33432 255.96027 L11.99603 256.92531 L12.22855 257.23031 L12.97846 258.21406 L13.20535 258.48251 L13.98416 259.40405 L14.21917 259.65547 L15.07597 260.57214 L15.31043 260.79884 L16.21850 261.67693 L16.45407 261.88273 L17.42210 262.72847 L17.66004 262.91580 L18.69650 263.73190 L18.92021 263.89052 L19.95156 264.62189 L20.18381 264.76970 L21.31287 265.48827 L21.53556 265.61466 L22.67647 266.26222 L22.89476 266.37215 L24.06873 266.96340 L24.29492 267.06324 L25.56831 267.62536 L25.77759 267.70535 L27.00833 268.17581 L27.21877 268.24451 L28.50382 268.66405 L28.71473 268.72130 L30.04732 269.08304 L30.25529 269.12828 L31.60903 269.42273 L31.81330 269.45642 L33.17574 269.68111 L33.37198 269.70350 L34.70552 269.85571 L34.90643 269.86855 L36.28891 269.95695 L36.49534 269.95953 L37.92566 269.97743 L38.11992 269.97002 L39.46683 269.91865 L39.66793 269.90089 L41.05465 269.77845 L41.25350 269.75074 L42.60881 269.56189 L42.81207 269.52306 L44.17339 269.26295 L44.37507 269.21380 L45.69469 268.89215 L45.89994 268.83111 L47.20541 268.44283 L47.41784 268.36774 L48.72438 267.90585 L48.93779 267.81793 L50.20027 267.29776 L50.41445 267.19659 L51.62852 266.62306 L51.84316 266.50824 L53.00518 265.88656 L53.22667 265.75340 L54.36852 265.06687 L54.59499 264.91455 L55.70263 264.16949 L55.92862 264.00024 L56.97424 263.21703 L57.20483 263.02533 L58.21233 262.18762 L58.43948 261.97846 L59.37472 261.11722 L59.60218 260.88566 L60.48410 259.98777 L60.70999 259.73348 L61.53379 258.80607 L61.75116 258.53560 L62.49643 257.60820 L62.71996 257.29980 L63.44034 256.30584 L63.65870 255.96983 L64.31833 254.95463 L64.52035 254.60697 L65.09265 253.62201 L65.29745 253.22495 L65.84180 252.16947 L66.02497 251.76575 L66.48101 250.76050 L66.65754 250.31355 L67.06989 249.26946 L67.23185 248.78933 L67.58618 247.73885 L67.72303 247.25497 L68.00371 246.26244 L68.12567 245.73277 L68.36051 244.71278 L68.46130 244.14506 L68.64319 243.12041 L68.71740 242.52931 L68.84289 241.52962 L68.88842 240.92137 L68.96065 239.95640 L68.97646 239.32210 z"/>
<path fill="#000000" stroke="#000000" d="M6.01062 237.55658 L6.05597 236.66000 L6.08958 235.99560 L6.17665 235.12620 L6.24514 234.44239 L6.37675 233.57124 L6.48670 232.84354 L6.65438 232.01854 L6.80316 231.28658 L7.00362 230.50275 L7.19228 229.76510 L7.42523 229.01206 L7.65759 228.26099 L7.92404 227.53126 L8.20569 226.75999 L8.50621 226.05137 L8.84296 225.25742 L9.15231 224.61929 L9.51931 223.86229 L9.86063 223.23927 L10.28863 222.45813 L10.64450 221.87961 L11.11611 221.11304 L11.48303 220.57795 L11.99603 219.82989 L12.39314 219.30897 L12.97846 218.54124 L13.37238 218.07514 L13.98416 217.35134 L14.39885 216.90769 L15.07597 216.18335 L15.49671 215.77651 L16.21850 215.07865 L16.64847 214.70301 L17.42210 214.02721 L17.86393 213.67933 L18.69650 213.02388 L19.11921 212.72413 L19.95156 212.13397 L20.39773 211.85002 L21.31287 211.26768 L21.74801 211.02071 L22.67647 210.49381 L23.10993 210.27552 L24.06873 209.79270 L24.52487 209.59136 L25.56831 209.13082 L25.99687 208.96701 L27.00833 208.58043 L27.44508 208.43785 L28.50382 208.09225 L28.94701 207.97195 L30.04732 207.67330 L30.48922 207.57719 L31.60903 207.33366 L32.04709 207.26142 L33.17574 207.07531 L33.59965 207.02693 L34.70552 206.90073 L35.14168 206.87285 L36.28891 206.79950 L36.73836 206.79388 L37.92566 206.77903 L38.34884 206.79517 L39.46683 206.83780 L39.90413 206.87641 L41.05465 206.97799 L41.48529 207.03799 L42.60881 207.19451 L43.04624 207.27809 L44.17339 207.49342 L44.60381 207.59832 L45.69469 207.86418 L46.12833 207.99315 L47.20541 208.31344 L47.64897 208.47024 L48.72438 208.85036 L49.16399 209.03148 L50.20027 209.45838 L50.63509 209.66378 L51.62852 210.13301 L52.05763 210.36257 L53.00518 210.86943 L53.44098 211.13144 L54.36852 211.68904 L54.80672 211.98378 L55.70263 212.58632 L56.13242 212.90823 L56.97424 213.53869 L57.40527 213.89706 L58.21233 214.56801 L58.62957 214.95222 L59.37472 215.63831 L59.78542 216.05644 L60.48410 216.76767 L60.88511 217.21910 L61.53379 217.94927 L61.91327 218.42148 L62.49643 219.14705 L62.88045 219.67691 L63.44034 220.44932 L63.80936 221.01723 L64.31833 221.80044 L64.65434 222.37871 L65.09265 223.13298 L65.42818 223.78354 L65.84180 224.58544 L66.13731 225.23681 L66.48101 225.99434 L66.76176 226.70520 L67.06989 227.48532 L67.32379 228.23805 L67.58618 229.01586 L67.79774 229.76398 L68.00371 230.49222 L68.18982 231.30055 L68.36051 232.04185 L68.51231 232.89699 L68.64319 233.63418 L68.75353 234.51320 L68.84289 235.22495 L68.90977 236.11842 L68.96065 236.79816 L68.98360 237.71902 L69.00000 238.37727 L68.97646 239.32210 L68.96065 239.95640 L68.88842 240.92137 L68.84289 241.52962 L68.71740 242.52931 L68.64319 243.12041 L68.46130 244.14506 L68.36051 244.71278 L68.12567 245.73277 L68.00371 246.26244 L67.72303 247.25497 L67.58618 247.73885 L67.23185 248.78933 L67.06989 249.26946 L66.65754 250.31355 L66.48101 250.76050 L66.02497 251.76575 L65.84180 252.16947 L65.29745 253.22495 L65.09265 253.62201 L64.52035 254.60697 L64.31833 254.95463 L63.65870 255.96983 L63.44034 256.30584 L62.71996 257.29980 L62.49643 257.60820 L61.75116 258.53560 L61.53379 258.80607 L60.70999 259.73348 L60.48410 259.98777 L59.60218 260.88566 L59.37472 261.11722 L58.43948 261.97846 L58.21233 262.18762 L57.20483 263.02533 L56.97424 263.21703 L55.92862 264.00024 L55.70263 264.16949 L54.59499 264.91455 L54.36852 265.06687 L53.22667 265.75340 L53.00518 265.88656 L51.84316 266.50824 L51.62852 266.62306 L50.41445 267.19659 L50.20027 267.29776 L48.93779 267.81793 L48.72438 267.90585 L47.41784 268.36774 L47.20541 268.44283 L45.89994 268.83111 L45.69469 268.89215 L44.37507 269.21380 L44.17339 269.26295 L42.81207 269.52306 L42.60881 269.56189 L41.25350 269.75074 L41.05465 269.77845 L39.66793 269.90089 L39.46683 269.91865 L38.11992 269.97002 L37.92566 269.97743 L36.49534 269.95953 L36.28891 269.95695 L34.90643 269.86855 L34.70552 269.85571 L33.37198 269.70350 L33.17574 269.68111 L31.81330 269.45642 L31.60903 269.42273 L30.25529 269.12828 L30.04732 269.08304 L28.71473 268.72130 L28.50382 268.66405 L27.21877 268.24451 L27.00833 268.17581 L25.77759 267.70535 L25.56831 267.62536 L24.29492 267.06324 L24.06873 266.96340 L22.89476 266.37215 L22.67647 266.26222 L21.53556 265.61466 L21.31287 265.48827 L20.18381 264.76970 L19.95156 264.62189 L18.92021 263.89052 L18.69650 263.73190 L17.66004 262.91580 L17.42210 262.72847 L16.45407 261.88273 L16.21850 261.67693 L15.31043 260.79884 L15.07597 260.57214 L14.21917 259.65547 L13.98416 259.40405 L13.20535 258.48251 L12.97846 258.21406 L12.22855 257.23031 L11.99603 256.92531 L11.33432 255.96027 L11.11611 255.64207 L10.50354 254.64623 L10.28863 254.29690 L9.72857 253.27460 L9.51931 252.89266 L9.03536 251.89431 L8.84296 251.49746 L8.39533 250.44195 L8.20569 249.99482 L7.82809 248.96066 L7.65759 248.49375 L7.34334 247.47786 L7.19228 246.98958 L6.93483 245.98287 L6.80316 245.46806 L6.59823 244.45978 L6.48670 243.91107 L6.33377 242.89881 L6.24514 242.31218 L6.14891 241.35130 L6.08958 240.75895 L6.04188 239.81577 L6.01062 239.19797 z"/>
</svg>